<?xml version="1.0" encoding="UTF-8" standalone="no"?>
<!DOCTYPE svg PUBLIC "-//W3C//DTD SVG 1.1//EN"
 "http://www.w3.org/Graphics/SVG/1.1/DTD/svg11.dtd">
<!-- Generated by graphviz version 2.47.0 (20210316.0004)
 -->
<!-- Title: dbml Pages: 1 -->
<svg width="2991pt" height="1357pt"
 viewBox="0.00 0.00 2991.10 1357.48" xmlns="http://www.w3.org/2000/svg" xmlns:xlink="http://www.w3.org/1999/xlink">
<g id="graph0" class="graph" transform="scale(1 1) rotate(0) translate(4 1353.48)">
<title>dbml</title>
<!-- workout.workout_plan -->
<g id="workout.workout_plan" class="node">
<title>workout.workout_plan</title>
<ellipse fill="none" stroke="black" stroke-width="0" cx="2657.12" cy="-427.09" rx="325.95" ry="427.19"/>
<polygon fill="#1d71b8" stroke="transparent" points="2429.12,-667.09 2429.12,-727.09 2886.12,-727.09 2886.12,-667.09 2429.12,-667.09"/>
<polygon fill="none" stroke="#29235c" points="2429.12,-667.09 2429.12,-727.09 2886.12,-727.09 2886.12,-667.09 2429.12,-667.09"/>
<text text-anchor="start" x="2439.78" y="-688.29" font-family="Helvetica,sans-Serif" font-weight="bold" font-size="32.00" fill="#ffffff"> &#160;&#160;&#160;&#160;&#160;&#160;workout.workout_plan &#160;&#160;&#160;&#160;&#160;&#160;</text>
<polygon fill="#e7e2dd" stroke="transparent" points="2429.12,-607.09 2429.12,-667.09 2886.12,-667.09 2886.12,-607.09 2429.12,-607.09"/>
<polygon fill="none" stroke="#29235c" points="2429.12,-607.09 2429.12,-667.09 2886.12,-667.09 2886.12,-607.09 2429.12,-607.09"/>
<text text-anchor="start" x="2440.12" y="-628.29" font-family="Helvetica,sans-Serif" font-weight="bold" font-size="32.00" fill="#29235c">id</text>
<text text-anchor="start" x="2465.01" y="-628.29" font-family="Helvetica,sans-Serif" font-size="32.00" fill="#29235c"> &#160;&#160;&#160;</text>
<text text-anchor="start" x="2798.66" y="-628.29" font-family="Helvetica,sans-Serif" font-style="italic" font-size="32.00" fill="#29235c">bigint</text>
<polygon fill="#e7e2dd" stroke="transparent" points="2429.12,-547.09 2429.12,-607.09 2886.12,-607.09 2886.12,-547.09 2429.12,-547.09"/>
<polygon fill="none" stroke="#29235c" points="2429.12,-547.09 2429.12,-607.09 2886.12,-607.09 2886.12,-547.09 2429.12,-547.09"/>
<text text-anchor="start" x="2440.12" y="-567.29" font-family="Helvetica,sans-Serif" font-size="32.00" fill="#29235c">name &#160;&#160;&#160;</text>
<text text-anchor="start" x="2784.45" y="-568.29" font-family="Helvetica,sans-Serif" font-style="italic" font-size="32.00" fill="#29235c">text</text>
<text text-anchor="start" x="2836.03" y="-568.29" font-family="Helvetica,sans-Serif" font-size="32.00" fill="#29235c"> </text>
<text text-anchor="start" x="2844.92" y="-568.29" font-family="Helvetica,sans-Serif" font-weight="bold" font-size="32.00" fill="#29235c">(!)</text>
<polygon fill="#e7e2dd" stroke="transparent" points="2429.12,-487.09 2429.12,-547.09 2886.12,-547.09 2886.12,-487.09 2429.12,-487.09"/>
<polygon fill="none" stroke="#29235c" points="2429.12,-487.09 2429.12,-547.09 2886.12,-547.09 2886.12,-487.09 2429.12,-487.09"/>
<text text-anchor="start" x="2440.12" y="-507.29" font-family="Helvetica,sans-Serif" font-size="32.00" fill="#29235c">created_at &#160;&#160;&#160;</text>
<text text-anchor="start" x="2663.58" y="-508.29" font-family="Helvetica,sans-Serif" font-style="italic" font-size="32.00" fill="#29235c">timestamptz</text>
<text text-anchor="start" x="2836.03" y="-508.29" font-family="Helvetica,sans-Serif" font-size="32.00" fill="#29235c"> </text>
<text text-anchor="start" x="2844.92" y="-508.29" font-family="Helvetica,sans-Serif" font-weight="bold" font-size="32.00" fill="#29235c">(!)</text>
<polygon fill="#e7e2dd" stroke="transparent" points="2429.12,-427.09 2429.12,-487.09 2886.12,-487.09 2886.12,-427.09 2429.12,-427.09"/>
<polygon fill="none" stroke="#29235c" points="2429.12,-427.09 2429.12,-487.09 2886.12,-487.09 2886.12,-427.09 2429.12,-427.09"/>
<text text-anchor="start" x="2440.12" y="-447.29" font-family="Helvetica,sans-Serif" font-size="32.00" fill="#29235c">is_deleted &#160;&#160;&#160;</text>
<text text-anchor="start" x="2722.2" y="-448.29" font-family="Helvetica,sans-Serif" font-style="italic" font-size="32.00" fill="#29235c">boolean</text>
<text text-anchor="start" x="2836.03" y="-448.29" font-family="Helvetica,sans-Serif" font-size="32.00" fill="#29235c"> </text>
<text text-anchor="start" x="2844.92" y="-448.29" font-family="Helvetica,sans-Serif" font-weight="bold" font-size="32.00" fill="#29235c">(!)</text>
<polygon fill="#e7e2dd" stroke="transparent" points="2429.12,-367.09 2429.12,-427.09 2886.12,-427.09 2886.12,-367.09 2429.12,-367.09"/>
<polygon fill="none" stroke="#29235c" points="2429.12,-367.09 2429.12,-427.09 2886.12,-427.09 2886.12,-367.09 2429.12,-367.09"/>
<text text-anchor="start" x="2440.12" y="-387.29" font-family="Helvetica,sans-Serif" font-size="32.00" fill="#29235c">level &#160;&#160;&#160;</text>
<text text-anchor="start" x="2784.45" y="-388.29" font-family="Helvetica,sans-Serif" font-style="italic" font-size="32.00" fill="#29235c">text</text>
<text text-anchor="start" x="2836.03" y="-388.29" font-family="Helvetica,sans-Serif" font-size="32.00" fill="#29235c"> </text>
<text text-anchor="start" x="2844.92" y="-388.29" font-family="Helvetica,sans-Serif" font-weight="bold" font-size="32.00" fill="#29235c">(!)</text>
<polygon fill="#e7e2dd" stroke="transparent" points="2429.12,-307.09 2429.12,-367.09 2886.12,-367.09 2886.12,-307.09 2429.12,-307.09"/>
<polygon fill="none" stroke="#29235c" points="2429.12,-307.09 2429.12,-367.09 2886.12,-367.09 2886.12,-307.09 2429.12,-307.09"/>
<text text-anchor="start" x="2440.12" y="-327.29" font-family="Helvetica,sans-Serif" font-size="32.00" fill="#29235c">user_id &#160;&#160;&#160;</text>
<text text-anchor="start" x="2775.56" y="-328.29" font-family="Helvetica,sans-Serif" font-style="italic" font-size="32.00" fill="#29235c">uuid</text>
<text text-anchor="start" x="2836.03" y="-328.29" font-family="Helvetica,sans-Serif" font-size="32.00" fill="#29235c"> </text>
<text text-anchor="start" x="2844.92" y="-328.29" font-family="Helvetica,sans-Serif" font-weight="bold" font-size="32.00" fill="#29235c">(!)</text>
<polygon fill="#e7e2dd" stroke="transparent" points="2429.12,-247.09 2429.12,-307.09 2886.12,-307.09 2886.12,-247.09 2429.12,-247.09"/>
<polygon fill="none" stroke="#29235c" points="2429.12,-247.09 2429.12,-307.09 2886.12,-307.09 2886.12,-247.09 2429.12,-247.09"/>
<text text-anchor="start" x="2440.12" y="-267.29" font-family="Helvetica,sans-Serif" font-size="32.00" fill="#29235c">trainer_id &#160;&#160;&#160;</text>
<text text-anchor="start" x="2814.65" y="-268.29" font-family="Helvetica,sans-Serif" font-style="italic" font-size="32.00" fill="#29235c">uuid</text>
<polygon fill="#e7e2dd" stroke="transparent" points="2429.12,-187.09 2429.12,-247.09 2886.12,-247.09 2886.12,-187.09 2429.12,-187.09"/>
<polygon fill="none" stroke="#29235c" points="2429.12,-187.09 2429.12,-247.09 2886.12,-247.09 2886.12,-187.09 2429.12,-187.09"/>
<text text-anchor="start" x="2440.12" y="-207.29" font-family="Helvetica,sans-Serif" font-size="32.00" fill="#29235c">is_active &#160;&#160;&#160;</text>
<text text-anchor="start" x="2722.2" y="-208.29" font-family="Helvetica,sans-Serif" font-style="italic" font-size="32.00" fill="#29235c">boolean</text>
<text text-anchor="start" x="2836.03" y="-208.29" font-family="Helvetica,sans-Serif" font-size="32.00" fill="#29235c"> </text>
<text text-anchor="start" x="2844.92" y="-208.29" font-family="Helvetica,sans-Serif" font-weight="bold" font-size="32.00" fill="#29235c">(!)</text>
<polygon fill="#e7e2dd" stroke="transparent" points="2429.12,-127.09 2429.12,-187.09 2886.12,-187.09 2886.12,-127.09 2429.12,-127.09"/>
<polygon fill="none" stroke="#29235c" points="2429.12,-127.09 2429.12,-187.09 2886.12,-187.09 2886.12,-127.09 2429.12,-127.09"/>
<text text-anchor="start" x="2440.12" y="-147.29" font-family="Helvetica,sans-Serif" font-size="32.00" fill="#29235c">updated_at &#160;&#160;&#160;</text>
<text text-anchor="start" x="2663.58" y="-148.29" font-family="Helvetica,sans-Serif" font-style="italic" font-size="32.00" fill="#29235c">timestamptz</text>
<text text-anchor="start" x="2836.03" y="-148.29" font-family="Helvetica,sans-Serif" font-size="32.00" fill="#29235c"> </text>
<text text-anchor="start" x="2844.92" y="-148.29" font-family="Helvetica,sans-Serif" font-weight="bold" font-size="32.00" fill="#29235c">(!)</text>
<polygon fill="none" stroke="#29235c" stroke-width="2" points="2427.62,-126.09 2427.62,-728.09 2886.62,-728.09 2886.62,-126.09 2427.62,-126.09"/>
</g>
<!-- workout.workout_split -->
<g id="workout.workout_split" class="node">
<title>workout.workout_split</title>
<ellipse fill="none" stroke="black" stroke-width="0" cx="1958.56" cy="-517.09" rx="323.71" ry="299.63"/>
<polygon fill="#1d71b8" stroke="transparent" points="1731.56,-667.09 1731.56,-727.09 2185.56,-727.09 2185.56,-667.09 1731.56,-667.09"/>
<polygon fill="none" stroke="#29235c" points="1731.56,-667.09 1731.56,-727.09 2185.56,-727.09 2185.56,-667.09 1731.56,-667.09"/>
<text text-anchor="start" x="1742.52" y="-688.29" font-family="Helvetica,sans-Serif" font-weight="bold" font-size="32.00" fill="#ffffff"> &#160;&#160;&#160;&#160;&#160;&#160;workout.workout_split &#160;&#160;&#160;&#160;&#160;&#160;</text>
<polygon fill="#e7e2dd" stroke="transparent" points="1731.56,-607.09 1731.56,-667.09 2185.56,-667.09 2185.56,-607.09 1731.56,-607.09"/>
<polygon fill="none" stroke="#29235c" points="1731.56,-607.09 1731.56,-667.09 2185.56,-667.09 2185.56,-607.09 1731.56,-607.09"/>
<text text-anchor="start" x="1742.56" y="-628.29" font-family="Helvetica,sans-Serif" font-weight="bold" font-size="32.00" fill="#29235c">id</text>
<text text-anchor="start" x="1767.45" y="-628.29" font-family="Helvetica,sans-Serif" font-size="32.00" fill="#29235c"> &#160;&#160;&#160;</text>
<text text-anchor="start" x="2098.1" y="-628.29" font-family="Helvetica,sans-Serif" font-style="italic" font-size="32.00" fill="#29235c">bigint</text>
<polygon fill="#e7e2dd" stroke="transparent" points="1731.56,-547.09 1731.56,-607.09 2185.56,-607.09 2185.56,-547.09 1731.56,-547.09"/>
<polygon fill="none" stroke="#29235c" points="1731.56,-547.09 1731.56,-607.09 2185.56,-607.09 2185.56,-547.09 1731.56,-547.09"/>
<text text-anchor="start" x="1742.56" y="-567.29" font-family="Helvetica,sans-Serif" font-size="32.00" fill="#29235c">workout_id &#160;&#160;&#160;</text>
<text text-anchor="start" x="2059.01" y="-568.29" font-family="Helvetica,sans-Serif" font-style="italic" font-size="32.00" fill="#29235c">bigint</text>
<text text-anchor="start" x="2135.47" y="-568.29" font-family="Helvetica,sans-Serif" font-size="32.00" fill="#29235c"> </text>
<text text-anchor="start" x="2144.36" y="-568.29" font-family="Helvetica,sans-Serif" font-weight="bold" font-size="32.00" fill="#29235c">(!)</text>
<polygon fill="#e7e2dd" stroke="transparent" points="1731.56,-487.09 1731.56,-547.09 2185.56,-547.09 2185.56,-487.09 1731.56,-487.09"/>
<polygon fill="none" stroke="#29235c" points="1731.56,-487.09 1731.56,-547.09 2185.56,-547.09 2185.56,-487.09 1731.56,-487.09"/>
<text text-anchor="start" x="1742.56" y="-507.29" font-family="Helvetica,sans-Serif" font-size="32.00" fill="#29235c">name &#160;&#160;&#160;</text>
<text text-anchor="start" x="2083.9" y="-508.29" font-family="Helvetica,sans-Serif" font-style="italic" font-size="32.00" fill="#29235c">text</text>
<text text-anchor="start" x="2135.47" y="-508.29" font-family="Helvetica,sans-Serif" font-size="32.00" fill="#29235c"> </text>
<text text-anchor="start" x="2144.36" y="-508.29" font-family="Helvetica,sans-Serif" font-weight="bold" font-size="32.00" fill="#29235c">(!)</text>
<polygon fill="#e7e2dd" stroke="transparent" points="1731.56,-427.09 1731.56,-487.09 2185.56,-487.09 2185.56,-427.09 1731.56,-427.09"/>
<polygon fill="none" stroke="#29235c" points="1731.56,-427.09 1731.56,-487.09 2185.56,-487.09 2185.56,-427.09 1731.56,-427.09"/>
<text text-anchor="start" x="1742.56" y="-447.29" font-family="Helvetica,sans-Serif" font-size="32.00" fill="#29235c">created_at &#160;&#160;&#160;</text>
<text text-anchor="start" x="1963.02" y="-448.29" font-family="Helvetica,sans-Serif" font-style="italic" font-size="32.00" fill="#29235c">timestamptz</text>
<text text-anchor="start" x="2135.47" y="-448.29" font-family="Helvetica,sans-Serif" font-size="32.00" fill="#29235c"> </text>
<text text-anchor="start" x="2144.36" y="-448.29" font-family="Helvetica,sans-Serif" font-weight="bold" font-size="32.00" fill="#29235c">(!)</text>
<polygon fill="#e7e2dd" stroke="transparent" points="1731.56,-367.09 1731.56,-427.09 2185.56,-427.09 2185.56,-367.09 1731.56,-367.09"/>
<polygon fill="none" stroke="#29235c" points="1731.56,-367.09 1731.56,-427.09 2185.56,-427.09 2185.56,-367.09 1731.56,-367.09"/>
<text text-anchor="start" x="1742.56" y="-387.29" font-family="Helvetica,sans-Serif" font-size="32.00" fill="#29235c">muscle_group &#160;&#160;&#160;</text>
<text text-anchor="start" x="2122.99" y="-388.29" font-family="Helvetica,sans-Serif" font-style="italic" font-size="32.00" fill="#29235c">text</text>
<polygon fill="#e7e2dd" stroke="transparent" points="1731.56,-307.09 1731.56,-367.09 2185.56,-367.09 2185.56,-307.09 1731.56,-307.09"/>
<polygon fill="none" stroke="#29235c" points="1731.56,-307.09 1731.56,-367.09 2185.56,-367.09 2185.56,-307.09 1731.56,-307.09"/>
<text text-anchor="start" x="1742.56" y="-327.29" font-family="Helvetica,sans-Serif" font-size="32.00" fill="#29235c">is_active &#160;&#160;&#160;</text>
<text text-anchor="start" x="2021.64" y="-328.29" font-family="Helvetica,sans-Serif" font-style="italic" font-size="32.00" fill="#29235c">boolean</text>
<text text-anchor="start" x="2135.47" y="-328.29" font-family="Helvetica,sans-Serif" font-size="32.00" fill="#29235c"> </text>
<text text-anchor="start" x="2144.36" y="-328.29" font-family="Helvetica,sans-Serif" font-weight="bold" font-size="32.00" fill="#29235c">(!)</text>
<polygon fill="none" stroke="#29235c" stroke-width="2" points="1730.56,-306.09 1730.56,-728.09 2186.56,-728.09 2186.56,-306.09 1730.56,-306.09"/>
</g>
<!-- workout.workout_split&#45;&gt;workout.workout_plan -->
<!-- workout.workout_split&#45;&gt;workout.workout_plan -->
<g id="edge2" class="edge">
<title>workout.workout_split:e&#45;&gt;workout.workout_plan:w</title>
<path fill="none" stroke="#29235c" stroke-width="3" d="M2186.56,-577.09C2293.73,-577.09 2316.14,-633.4 2418.01,-636.92"/>
<polygon fill="#29235c" stroke="#29235c" stroke-width="3" points="2418.06,-640.42 2428.12,-637.09 2418.18,-633.42 2418.06,-640.42"/>
<text text-anchor="middle" x="2437.01" y="-608.29" font-family="Helvetica,sans-Serif" font-size="32.00" fill="#29235c">1</text>
<text text-anchor="middle" x="2192.78" y="-577.09" font-family="Helvetica,sans-Serif" font-size="32.00" fill="#29235c">*</text>
</g>
<!-- workout.exercise -->
<g id="workout.exercise" class="node">
<title>workout.exercise</title>
<ellipse fill="none" stroke="black" stroke-width="0" cx="1958.56" cy="-1092.09" rx="336.67" ry="257.27"/>
<polygon fill="#1d71b8" stroke="transparent" points="1722.56,-1212.09 1722.56,-1272.09 2194.56,-1272.09 2194.56,-1212.09 1722.56,-1212.09"/>
<polygon fill="none" stroke="#29235c" points="1722.56,-1212.09 1722.56,-1272.09 2194.56,-1272.09 2194.56,-1212.09 1722.56,-1212.09"/>
<text text-anchor="start" x="1776.3" y="-1233.29" font-family="Helvetica,sans-Serif" font-weight="bold" font-size="32.00" fill="#ffffff"> &#160;&#160;&#160;&#160;&#160;&#160;workout.exercise &#160;&#160;&#160;&#160;&#160;&#160;</text>
<polygon fill="#e7e2dd" stroke="transparent" points="1722.56,-1152.09 1722.56,-1212.09 2194.56,-1212.09 2194.56,-1152.09 1722.56,-1152.09"/>
<polygon fill="none" stroke="#29235c" points="1722.56,-1152.09 1722.56,-1212.09 2194.56,-1212.09 2194.56,-1152.09 1722.56,-1152.09"/>
<text text-anchor="start" x="1733.56" y="-1173.29" font-family="Helvetica,sans-Serif" font-weight="bold" font-size="32.00" fill="#29235c">id</text>
<text text-anchor="start" x="1758.45" y="-1173.29" font-family="Helvetica,sans-Serif" font-size="32.00" fill="#29235c"> &#160;&#160;&#160;</text>
<text text-anchor="start" x="2107.1" y="-1173.29" font-family="Helvetica,sans-Serif" font-style="italic" font-size="32.00" fill="#29235c">bigint</text>
<polygon fill="#e7e2dd" stroke="transparent" points="1722.56,-1092.09 1722.56,-1152.09 2194.56,-1152.09 2194.56,-1092.09 1722.56,-1092.09"/>
<polygon fill="none" stroke="#29235c" points="1722.56,-1092.09 1722.56,-1152.09 2194.56,-1152.09 2194.56,-1092.09 1722.56,-1092.09"/>
<text text-anchor="start" x="1733.56" y="-1112.29" font-family="Helvetica,sans-Serif" font-size="32.00" fill="#29235c">name &#160;&#160;&#160;</text>
<text text-anchor="start" x="2092.9" y="-1113.29" font-family="Helvetica,sans-Serif" font-style="italic" font-size="32.00" fill="#29235c">text</text>
<text text-anchor="start" x="2144.47" y="-1113.29" font-family="Helvetica,sans-Serif" font-size="32.00" fill="#29235c"> </text>
<text text-anchor="start" x="2153.36" y="-1113.29" font-family="Helvetica,sans-Serif" font-weight="bold" font-size="32.00" fill="#29235c">(!)</text>
<polygon fill="#e7e2dd" stroke="transparent" points="1722.56,-1032.09 1722.56,-1092.09 2194.56,-1092.09 2194.56,-1032.09 1722.56,-1032.09"/>
<polygon fill="none" stroke="#29235c" points="1722.56,-1032.09 1722.56,-1092.09 2194.56,-1092.09 2194.56,-1032.09 1722.56,-1032.09"/>
<text text-anchor="start" x="1733.56" y="-1052.29" font-family="Helvetica,sans-Serif" font-size="32.00" fill="#29235c">description &#160;&#160;&#160;</text>
<text text-anchor="start" x="2092.9" y="-1053.29" font-family="Helvetica,sans-Serif" font-style="italic" font-size="32.00" fill="#29235c">text</text>
<text text-anchor="start" x="2144.47" y="-1053.29" font-family="Helvetica,sans-Serif" font-size="32.00" fill="#29235c"> </text>
<text text-anchor="start" x="2153.36" y="-1053.29" font-family="Helvetica,sans-Serif" font-weight="bold" font-size="32.00" fill="#29235c">(!)</text>
<polygon fill="#e7e2dd" stroke="transparent" points="1722.56,-972.09 1722.56,-1032.09 2194.56,-1032.09 2194.56,-972.09 1722.56,-972.09"/>
<polygon fill="none" stroke="#29235c" points="1722.56,-972.09 1722.56,-1032.09 2194.56,-1032.09 2194.56,-972.09 1722.56,-972.09"/>
<text text-anchor="start" x="1733.56" y="-992.29" font-family="Helvetica,sans-Serif" font-size="32.00" fill="#29235c">target_muscle &#160;&#160;&#160;</text>
<text text-anchor="start" x="2092.9" y="-993.29" font-family="Helvetica,sans-Serif" font-style="italic" font-size="32.00" fill="#29235c">text</text>
<text text-anchor="start" x="2144.47" y="-993.29" font-family="Helvetica,sans-Serif" font-size="32.00" fill="#29235c"> </text>
<text text-anchor="start" x="2153.36" y="-993.29" font-family="Helvetica,sans-Serif" font-weight="bold" font-size="32.00" fill="#29235c">(!)</text>
<polygon fill="#e7e2dd" stroke="transparent" points="1722.56,-912.09 1722.56,-972.09 2194.56,-972.09 2194.56,-912.09 1722.56,-912.09"/>
<polygon fill="none" stroke="#29235c" points="1722.56,-912.09 1722.56,-972.09 2194.56,-972.09 2194.56,-912.09 1722.56,-912.09"/>
<text text-anchor="start" x="1733.08" y="-932.29" font-family="Helvetica,sans-Serif" font-size="32.00" fill="#29235c">specific_target_muscle &#160;&#160;&#160;</text>
<text text-anchor="start" x="2093.23" y="-933.29" font-family="Helvetica,sans-Serif" font-style="italic" font-size="32.00" fill="#29235c">text</text>
<text text-anchor="start" x="2144.8" y="-933.29" font-family="Helvetica,sans-Serif" font-size="32.00" fill="#29235c"> </text>
<text text-anchor="start" x="2153.7" y="-933.29" font-family="Helvetica,sans-Serif" font-weight="bold" font-size="32.00" fill="#29235c">(!)</text>
<polygon fill="none" stroke="#29235c" stroke-width="2" points="1721.56,-911.09 1721.56,-1273.09 2195.56,-1273.09 2195.56,-911.09 1721.56,-911.09"/>
</g>
<!-- workout.exercise_to_workout_split -->
<g id="workout.exercise_to_workout_split" class="node">
<title>workout.exercise_to_workout_split</title>
<ellipse fill="none" stroke="black" stroke-width="0" cx="1134.14" cy="-819.09" rx="451.68" ry="342.48"/>
<polygon fill="#1d71b8" stroke="transparent" points="817.14,-999.09 817.14,-1059.09 1452.14,-1059.09 1452.14,-999.09 817.14,-999.09"/>
<polygon fill="none" stroke="#29235c" points="817.14,-999.09 817.14,-1059.09 1452.14,-1059.09 1452.14,-999.09 817.14,-999.09"/>
<text text-anchor="start" x="827.9" y="-1020.29" font-family="Helvetica,sans-Serif" font-weight="bold" font-size="32.00" fill="#ffffff"> &#160;&#160;&#160;&#160;&#160;&#160;workout.exercise_to_workout_split &#160;&#160;&#160;&#160;&#160;&#160;</text>
<polygon fill="#e7e2dd" stroke="transparent" points="817.14,-939.09 817.14,-999.09 1452.14,-999.09 1452.14,-939.09 817.14,-939.09"/>
<polygon fill="none" stroke="#29235c" points="817.14,-939.09 817.14,-999.09 1452.14,-999.09 1452.14,-939.09 817.14,-939.09"/>
<text text-anchor="start" x="828.14" y="-960.29" font-family="Helvetica,sans-Serif" font-weight="bold" font-size="32.00" fill="#29235c">id</text>
<text text-anchor="start" x="853.03" y="-960.29" font-family="Helvetica,sans-Serif" font-size="32.00" fill="#29235c"> &#160;&#160;&#160;</text>
<text text-anchor="start" x="1364.68" y="-960.29" font-family="Helvetica,sans-Serif" font-style="italic" font-size="32.00" fill="#29235c">bigint</text>
<polygon fill="#e7e2dd" stroke="transparent" points="817.14,-879.09 817.14,-939.09 1452.14,-939.09 1452.14,-879.09 817.14,-879.09"/>
<polygon fill="none" stroke="#29235c" points="817.14,-879.09 817.14,-939.09 1452.14,-939.09 1452.14,-879.09 817.14,-879.09"/>
<text text-anchor="start" x="828.14" y="-899.29" font-family="Helvetica,sans-Serif" font-size="32.00" fill="#29235c">exercise_id &#160;&#160;&#160;</text>
<text text-anchor="start" x="1325.58" y="-900.29" font-family="Helvetica,sans-Serif" font-style="italic" font-size="32.00" fill="#29235c">bigint</text>
<text text-anchor="start" x="1402.05" y="-900.29" font-family="Helvetica,sans-Serif" font-size="32.00" fill="#29235c"> </text>
<text text-anchor="start" x="1410.94" y="-900.29" font-family="Helvetica,sans-Serif" font-weight="bold" font-size="32.00" fill="#29235c">(!)</text>
<polygon fill="#e7e2dd" stroke="transparent" points="817.14,-819.09 817.14,-879.09 1452.14,-879.09 1452.14,-819.09 817.14,-819.09"/>
<polygon fill="none" stroke="#29235c" points="817.14,-819.09 817.14,-879.09 1452.14,-879.09 1452.14,-819.09 817.14,-819.09"/>
<text text-anchor="start" x="828.14" y="-839.29" font-family="Helvetica,sans-Serif" font-size="32.00" fill="#29235c">workout_split_id &#160;&#160;&#160;</text>
<text text-anchor="start" x="1325.58" y="-840.29" font-family="Helvetica,sans-Serif" font-style="italic" font-size="32.00" fill="#29235c">bigint</text>
<text text-anchor="start" x="1402.05" y="-840.29" font-family="Helvetica,sans-Serif" font-size="32.00" fill="#29235c"> </text>
<text text-anchor="start" x="1410.94" y="-840.29" font-family="Helvetica,sans-Serif" font-weight="bold" font-size="32.00" fill="#29235c">(!)</text>
<polygon fill="#e7e2dd" stroke="transparent" points="817.14,-759.09 817.14,-819.09 1452.14,-819.09 1452.14,-759.09 817.14,-759.09"/>
<polygon fill="none" stroke="#29235c" points="817.14,-759.09 817.14,-819.09 1452.14,-819.09 1452.14,-759.09 817.14,-759.09"/>
<text text-anchor="start" x="828.14" y="-779.29" font-family="Helvetica,sans-Serif" font-size="32.00" fill="#29235c">created_at &#160;&#160;&#160;</text>
<text text-anchor="start" x="1229.59" y="-780.29" font-family="Helvetica,sans-Serif" font-style="italic" font-size="32.00" fill="#29235c">timestamptz</text>
<text text-anchor="start" x="1402.05" y="-780.29" font-family="Helvetica,sans-Serif" font-size="32.00" fill="#29235c"> </text>
<text text-anchor="start" x="1410.94" y="-780.29" font-family="Helvetica,sans-Serif" font-weight="bold" font-size="32.00" fill="#29235c">(!)</text>
<polygon fill="#e7e2dd" stroke="transparent" points="817.14,-699.09 817.14,-759.09 1452.14,-759.09 1452.14,-699.09 817.14,-699.09"/>
<polygon fill="none" stroke="#29235c" points="817.14,-699.09 817.14,-759.09 1452.14,-759.09 1452.14,-699.09 817.14,-699.09"/>
<text text-anchor="start" x="828.14" y="-719.29" font-family="Helvetica,sans-Serif" font-size="32.00" fill="#29235c">sets &#160;&#160;&#160;</text>
<text text-anchor="start" x="1307.8" y="-720.29" font-family="Helvetica,sans-Serif" font-style="italic" font-size="32.00" fill="#29235c">bigint[]</text>
<text text-anchor="start" x="1402.05" y="-720.29" font-family="Helvetica,sans-Serif" font-size="32.00" fill="#29235c"> </text>
<text text-anchor="start" x="1410.94" y="-720.29" font-family="Helvetica,sans-Serif" font-weight="bold" font-size="32.00" fill="#29235c">(!)</text>
<polygon fill="#e7e2dd" stroke="transparent" points="817.14,-639.09 817.14,-699.09 1452.14,-699.09 1452.14,-639.09 817.14,-639.09"/>
<polygon fill="none" stroke="#29235c" points="817.14,-639.09 817.14,-699.09 1452.14,-699.09 1452.14,-639.09 817.14,-639.09"/>
<text text-anchor="start" x="828.14" y="-659.29" font-family="Helvetica,sans-Serif" font-size="32.00" fill="#29235c">order_index &#160;&#160;&#160;</text>
<text text-anchor="start" x="1325.58" y="-660.29" font-family="Helvetica,sans-Serif" font-style="italic" font-size="32.00" fill="#29235c">bigint</text>
<text text-anchor="start" x="1402.05" y="-660.29" font-family="Helvetica,sans-Serif" font-size="32.00" fill="#29235c"> </text>
<text text-anchor="start" x="1410.94" y="-660.29" font-family="Helvetica,sans-Serif" font-weight="bold" font-size="32.00" fill="#29235c">(!)</text>
<polygon fill="#e7e2dd" stroke="transparent" points="817.14,-579.09 817.14,-639.09 1452.14,-639.09 1452.14,-579.09 817.14,-579.09"/>
<polygon fill="none" stroke="#29235c" points="817.14,-579.09 817.14,-639.09 1452.14,-639.09 1452.14,-579.09 817.14,-579.09"/>
<text text-anchor="start" x="828.14" y="-599.29" font-family="Helvetica,sans-Serif" font-size="32.00" fill="#29235c">is_active &#160;&#160;&#160;</text>
<text text-anchor="start" x="1288.21" y="-600.29" font-family="Helvetica,sans-Serif" font-style="italic" font-size="32.00" fill="#29235c">boolean</text>
<text text-anchor="start" x="1402.05" y="-600.29" font-family="Helvetica,sans-Serif" font-size="32.00" fill="#29235c"> </text>
<text text-anchor="start" x="1410.94" y="-600.29" font-family="Helvetica,sans-Serif" font-weight="bold" font-size="32.00" fill="#29235c">(!)</text>
<polygon fill="none" stroke="#29235c" stroke-width="2" points="815.64,-578.09 815.64,-1060.09 1452.64,-1060.09 1452.64,-578.09 815.64,-578.09"/>
</g>
<!-- workout.exercise_to_workout_split&#45;&gt;workout.workout_split -->
<!-- workout.exercise_to_workout_split&#45;&gt;workout.workout_split -->
<g id="edge6" class="edge">
<title>workout.exercise_to_workout_split:e&#45;&gt;workout.workout_split:w</title>
<path fill="none" stroke="#29235c" stroke-width="3" d="M1453.14,-849.09C1604.83,-849.09 1576.77,-646.51 1720.38,-637.41"/>
<polygon fill="#29235c" stroke="#29235c" stroke-width="3" points="1720.67,-640.9 1730.56,-637.09 1720.46,-633.9 1720.67,-640.9"/>
<text text-anchor="middle" x="1721.67" y="-608.29" font-family="Helvetica,sans-Serif" font-size="32.00" fill="#29235c">1</text>
<text text-anchor="middle" x="1459.36" y="-820.29" font-family="Helvetica,sans-Serif" font-size="32.00" fill="#29235c">*</text>
</g>
<!-- workout.exercise_to_workout_split&#45;&gt;workout.exercise -->
<!-- workout.exercise_to_workout_split&#45;&gt;workout.exercise -->
<g id="edge4" class="edge">
<title>workout.exercise_to_workout_split:e&#45;&gt;workout.exercise:w</title>
<path fill="none" stroke="#29235c" stroke-width="3" d="M1453.14,-909.09C1619.81,-909.09 1554.25,-1171.01 1711.39,-1181.75"/>
<polygon fill="#29235c" stroke="#29235c" stroke-width="3" points="1711.45,-1185.26 1721.56,-1182.09 1711.68,-1178.26 1711.45,-1185.26"/>
<text text-anchor="middle" x="1712.67" y="-1191.69" font-family="Helvetica,sans-Serif" font-size="32.00" fill="#29235c">1</text>
<text text-anchor="middle" x="1459.36" y="-918.69" font-family="Helvetica,sans-Serif" font-size="32.00" fill="#29235c">*</text>
</g>
<!-- workout.workout_set -->
<g id="workout.workout_set" class="node">
<title>workout.workout_set</title>
<ellipse fill="none" stroke="black" stroke-width="0" cx="323.15" cy="-909.09" rx="323.3" ry="214.92"/>
<polygon fill="#1d71b8" stroke="transparent" points="97.15,-999.09 97.15,-1059.09 550.15,-1059.09 550.15,-999.09 97.15,-999.09"/>
<polygon fill="none" stroke="#29235c" points="97.15,-999.09 97.15,-1059.09 550.15,-1059.09 550.15,-999.09 97.15,-999.09"/>
<text text-anchor="start" x="114.7" y="-1020.29" font-family="Helvetica,sans-Serif" font-weight="bold" font-size="32.00" fill="#ffffff"> &#160;&#160;&#160;&#160;&#160;&#160;workout.workout_set &#160;&#160;&#160;&#160;&#160;&#160;</text>
<polygon fill="#e7e2dd" stroke="transparent" points="97.15,-939.09 97.15,-999.09 550.15,-999.09 550.15,-939.09 97.15,-939.09"/>
<polygon fill="none" stroke="#29235c" points="97.15,-939.09 97.15,-999.09 550.15,-999.09 550.15,-939.09 97.15,-939.09"/>
<text text-anchor="start" x="108.15" y="-960.29" font-family="Helvetica,sans-Serif" font-weight="bold" font-size="32.00" fill="#29235c">id</text>
<text text-anchor="start" x="133.04" y="-960.29" font-family="Helvetica,sans-Serif" font-size="32.00" fill="#29235c"> &#160;&#160;&#160;</text>
<text text-anchor="start" x="478.68" y="-960.29" font-family="Helvetica,sans-Serif" font-style="italic" font-size="32.00" fill="#29235c">uuid</text>
<polygon fill="#e7e2dd" stroke="transparent" points="97.15,-879.09 97.15,-939.09 550.15,-939.09 550.15,-879.09 97.15,-879.09"/>
<polygon fill="none" stroke="#29235c" points="97.15,-879.09 97.15,-939.09 550.15,-939.09 550.15,-879.09 97.15,-879.09"/>
<text text-anchor="start" x="107.89" y="-899.29" font-family="Helvetica,sans-Serif" font-size="32.00" fill="#29235c">exercise_to_split_id &#160;&#160;&#160;</text>
<text text-anchor="start" x="423.87" y="-900.29" font-family="Helvetica,sans-Serif" font-style="italic" font-size="32.00" fill="#29235c">bigint</text>
<text text-anchor="start" x="500.33" y="-900.29" font-family="Helvetica,sans-Serif" font-size="32.00" fill="#29235c"> </text>
<text text-anchor="start" x="509.23" y="-900.29" font-family="Helvetica,sans-Serif" font-weight="bold" font-size="32.00" fill="#29235c">(!)</text>
<polygon fill="#e7e2dd" stroke="transparent" points="97.15,-819.09 97.15,-879.09 550.15,-879.09 550.15,-819.09 97.15,-819.09"/>
<polygon fill="none" stroke="#29235c" points="97.15,-819.09 97.15,-879.09 550.15,-879.09 550.15,-819.09 97.15,-819.09"/>
<text text-anchor="start" x="108.15" y="-839.29" font-family="Helvetica,sans-Serif" font-size="32.00" fill="#29235c">order_index &#160;&#160;&#160;</text>
<text text-anchor="start" x="402.25" y="-840.29" font-family="Helvetica,sans-Serif" font-style="italic" font-size="32.00" fill="#29235c">integer</text>
<text text-anchor="start" x="500.06" y="-840.29" font-family="Helvetica,sans-Serif" font-size="32.00" fill="#29235c"> </text>
<text text-anchor="start" x="508.95" y="-840.29" font-family="Helvetica,sans-Serif" font-weight="bold" font-size="32.00" fill="#29235c">(!)</text>
<polygon fill="#e7e2dd" stroke="transparent" points="97.15,-759.09 97.15,-819.09 550.15,-819.09 550.15,-759.09 97.15,-759.09"/>
<polygon fill="none" stroke="#29235c" points="97.15,-759.09 97.15,-819.09 550.15,-819.09 550.15,-759.09 97.15,-759.09"/>
<text text-anchor="start" x="108.15" y="-779.29" font-family="Helvetica,sans-Serif" font-size="32.00" fill="#29235c">reps &#160;&#160;&#160;</text>
<text text-anchor="start" x="402.25" y="-780.29" font-family="Helvetica,sans-Serif" font-style="italic" font-size="32.00" fill="#29235c">integer</text>
<text text-anchor="start" x="500.06" y="-780.29" font-family="Helvetica,sans-Serif" font-size="32.00" fill="#29235c"> </text>
<text text-anchor="start" x="508.95" y="-780.29" font-family="Helvetica,sans-Serif" font-weight="bold" font-size="32.00" fill="#29235c">(!)</text>
<polygon fill="none" stroke="#29235c" stroke-width="2" points="95.65,-758.09 95.65,-1060.09 550.65,-1060.09 550.65,-758.09 95.65,-758.09"/>
</g>
<!-- workout.workout_set&#45;&gt;workout.exercise_to_workout_split -->
<!-- workout.workout_set&#45;&gt;workout.exercise_to_workout_split -->
<g id="edge8" class="edge">
<title>workout.workout_set:e&#45;&gt;workout.exercise_to_workout_split:w</title>
<path fill="none" stroke="#29235c" stroke-width="3" d="M551.15,-909.09C668.48,-909.09 693.97,-965.74 806.11,-968.95"/>
<polygon fill="#29235c" stroke="#29235c" stroke-width="3" points="806.09,-972.45 816.14,-969.09 806.19,-965.45 806.09,-972.45"/>
<text text-anchor="middle" x="825.03" y="-978.69" font-family="Helvetica,sans-Serif" font-size="32.00" fill="#29235c">1</text>
<text text-anchor="middle" x="557.37" y="-918.69" font-family="Helvetica,sans-Serif" font-size="32.00" fill="#29235c">*</text>
</g>
</g>
</svg>
